<svg width="22" height="22" viewBox="0 0 22 22" fill="none" xmlns="http://www.w3.org/2000/svg">
<g clip-path="url(#clip0_97_503)">
<path d="M11.0001 21.2667C16.6702 21.2667 21.2667 16.6701 21.2667 11C21.2667 5.32988 16.6702 0.733337 11.0001 0.733337C5.32994 0.733337 0.733398 5.32988 0.733398 11C0.733398 16.6701 5.32994 21.2667 11.0001 21.2667Z" fill="#4673C7"/>
<path d="M10.9999 12.65C13.3287 12.65 15.2165 10.7621 15.2165 8.43334C15.2165 6.10454 13.3287 4.21667 10.9999 4.21667C8.67107 4.21667 6.7832 6.10454 6.7832 8.43334C6.7832 10.7621 8.67107 12.65 10.9999 12.65Z" fill="white"/>
<path d="M11.0001 27.6834C15.1514 27.6834 18.5167 24.318 18.5167 20.1667C18.5167 16.0154 15.1514 12.65 11.0001 12.65C6.84872 12.65 3.4834 16.0154 3.4834 20.1667C3.4834 24.318 6.84872 27.6834 11.0001 27.6834Z" fill="white"/>
</g>
<defs>
<clipPath id="clip0_97_503">
<rect width="22" height="22" fill="white"/>
</clipPath>
</defs>
</svg>
