<svg width="22" height="20" viewBox="0 0 22 20" fill="none" xmlns="http://www.w3.org/2000/svg">
<path d="M19.6429 4.8H16.5V2.4C16.5 1.76338 16.2517 1.15305 15.8097 0.702857C15.3676 0.252855 14.7681 0 14.1429 0H7.85714C7.23189 0 6.63246 0.252855 6.19031 0.702857C5.74834 1.15304 5.5 1.76338 5.5 2.4V4.8H2.35714C1.73189 4.8 1.13246 5.05286 0.690306 5.50286C0.24834 5.95304 0 6.56338 0 7.2V8.8H3.92857V8H5.5V8.8H16.5V8H18.0714V8.8H22V7.2C22 6.56338 21.7517 5.95305 21.3097 5.50286C20.8676 5.05286 20.2681 4.8 19.6429 4.8ZM7.07143 2.4C7.07143 2.18786 7.15421 1.98428 7.30153 1.83429C7.44885 1.68429 7.64879 1.6 7.85714 1.6H14.1429C14.3512 1.6 14.5512 1.68429 14.6985 1.83429C14.8458 1.98428 14.9286 2.18786 14.9286 2.4V4.8H7.07143V2.4ZM0 17.6H22C22 18.2366 21.7517 18.8469 21.3097 19.2971C20.8676 19.7471 20.2681 20 19.6429 20H2.35714C1.73189 20 1.13246 19.7471 0.690306 19.2971C0.24834 18.847 0 18.2366 0 17.6ZM18.0714 10.4H22V16H0V10.4H3.92857V11.2H5.5V10.4H16.5V11.2H18.0714V10.4Z" fill="#999999"/>
</svg>
