<svg width="131" height="131" viewBox="0 0 131 131" fill="none" xmlns="http://www.w3.org/2000/svg">
<circle cx="65.0151" cy="65.0151" r="65.0151" fill="white"/>
<g clip-path="url(#clip0_298_79)">
<path d="M39.3333 80.3333C39.3333 83.2667 40.6333 85.9 42.6666 87.7333V92C42.6666 94.7667 44.8999 97 47.6666 97C50.4333 97 52.6666 94.7667 52.6666 92V90.3333H79.3333V92C79.3333 94.7333 81.5666 97 84.3333 97C87.0666 97 89.3333 94.7667 89.3333 92V87.7333C91.3666 85.9 92.6666 83.2667 92.6666 80.3333V47C92.6666 35.3333 80.7332 33.6667 65.9999 33.6667C51.2666 33.6667 39.3333 35.3333 39.3333 47V80.3333ZM50.9999 83.6667C48.2333 83.6667 45.9999 81.4333 45.9999 78.6667C45.9999 75.9 48.2333 73.6667 50.9999 73.6667C53.7666 73.6667 55.9999 75.9 55.9999 78.6667C55.9999 81.4333 53.7666 83.6667 50.9999 83.6667ZM80.9999 83.6667C78.2332 83.6667 75.9999 81.4333 75.9999 78.6667C75.9999 75.9 78.2332 73.6667 80.9999 73.6667C83.7666 73.6667 85.9999 75.9 85.9999 78.6667C85.9999 81.4333 83.7666 83.6667 80.9999 83.6667ZM85.9999 63.6667H45.9999V47H85.9999V63.6667Z" fill="#1B78CB"/>
</g>
<defs>
<clipPath id="clip0_298_79">
<rect width="80" height="80" fill="white" transform="translate(26 27)"/>
</clipPath>
</defs>
</svg>
