<svg width="75" height="74" viewBox="0 0 75 74" fill="none" xmlns="http://www.w3.org/2000/svg">
<circle cx="37.4999" cy="37.0539" r="36.553" fill="#1DB4EF"/>
<path d="M25.0683 22.0001H50.3485C50.7513 21.9971 51.1506 22.0749 51.5222 22.2288C51.8938 22.3828 52.2301 22.6097 52.5108 22.896C53.0825 23.4911 53.4654 24.2394 53.612 25.048L57.9499 46.5355C57.983 46.701 57.9997 46.8693 58 47.038C57.9943 47.4037 57.9149 47.7647 57.7665 48.0996C57.618 48.4345 57.4036 48.7367 57.1357 48.9884C56.6414 49.4697 56.0166 49.7982 55.3372 49.9339C55.1176 49.9784 54.8939 50.0005 54.6698 50H29.7266C29.6398 50 29.5531 50 29.4697 50H18.9485C17.4902 49.8413 16.9163 48.7769 17.0097 47.3719L21.0907 26.8761C21.331 25.9604 21.5546 25.0017 21.8382 24.2315C21.8846 24.0867 21.9438 23.9462 22.0151 23.8116L22.0317 23.7786C22.1774 23.4988 22.3679 23.2443 22.5957 23.0249C23.0785 22.5507 23.6871 22.2217 24.3509 22.0761C24.5867 22.0258 24.8271 22.0003 25.0683 22.0001ZM33.197 37.5372C31.5285 35.762 34.0846 33.124 35.9299 34.7934C36.5806 35.3819 37.5282 36.2414 38.1856 36.8265L43.0107 30.8959C44.7793 29.091 47.5622 31.7422 45.8204 33.5604L39.7005 40.843C39.351 41.2065 38.8729 41.422 38.3666 41.4441C37.8603 41.4663 37.3649 41.2936 36.9843 40.962C35.9065 39.9438 34.3148 38.4794 33.1936 37.5405L33.197 37.5372ZM50.3485 24.1521H25.0683C24.982 24.1522 24.8959 24.1611 24.8114 24.1786C24.5592 24.2344 24.328 24.3592 24.144 24.5389C24.023 24.6435 23.9477 24.7904 23.9338 24.9488C24.4577 30.4596 27.3207 40.6116 28.6054 46.5124C28.676 46.9098 28.8575 47.2796 29.1293 47.5802C29.2093 47.6621 29.3053 47.7272 29.4114 47.7715C29.5175 47.8159 29.6315 47.8385 29.7466 47.838H54.7165C54.7938 47.8369 54.8708 47.8292 54.9468 47.8149C55.2086 47.7624 55.4496 47.6361 55.6408 47.4512C55.7662 47.3405 55.8448 47.1871 55.8611 47.0215V46.9388L51.5231 25.4513C51.4603 25.0597 51.2841 24.6945 51.0159 24.4001C50.9349 24.3162 50.8375 24.2494 50.7297 24.204C50.6218 24.1585 50.5058 24.1353 50.3886 24.1356L50.3485 24.1521Z" fill="white"/>
</svg>
