<svg width="30" height="30" viewBox="0 0 30 30" fill="none" xmlns="http://www.w3.org/2000/svg">
<g clip-path="url(#clip0_223_3103)">
<path d="M23.63 11.0833C23.2212 11.0833 22.8899 11.4146 22.8899 11.8234V25.3383C22.8899 26.7665 21.7277 27.9287 20.2995 27.9287H4.07065C2.64246 27.9287 1.48025 26.7664 1.48025 25.3383V9.10938C1.48025 7.68119 2.64246 6.51904 4.07065 6.51904H20.2995C20.7082 6.51904 21.0396 6.18766 21.0396 5.77894C21.0396 5.37023 20.7082 5.03885 20.2995 5.03885H4.07065C1.82605 5.03885 0 6.86484 0 9.10938V25.3383C0 27.5828 1.82605 29.4088 4.07065 29.4088H20.2995C22.544 29.4088 24.3701 27.5828 24.3701 25.3383V11.8234C24.3701 11.4147 24.0387 11.0833 23.63 11.0833Z" fill="#FFFDFD"/>
<path d="M29.3297 1.26023C28.4375 0.367991 26.9859 0.368355 26.0943 1.26023L13.4171 13.9378C13.4002 13.9548 13.209 14.1535 13.1595 14.2649L11.4039 18.209C11.2792 18.4889 11.3399 18.8167 11.5567 19.0333C11.6984 19.1749 11.8877 19.2501 12.0804 19.2501C12.1819 19.2501 12.2841 19.2291 12.381 19.186L16.3251 17.4304C16.4361 17.381 16.6351 17.1898 16.6522 17.1728L29.3297 4.49568C29.762 4.06344 30.0001 3.48888 30.0001 2.87777C30.0001 2.26672 29.762 1.69204 29.3297 1.26023ZM28.2832 3.44875L15.6056 16.1263C15.6035 16.1285 15.6023 16.1311 15.6002 16.1328L13.54 17.05L14.4571 14.9898C14.459 14.9876 14.4615 14.9865 14.4636 14.9844L27.1409 2.30685C27.4463 2.00141 27.9785 2.00178 28.2832 2.30715C28.4359 2.45929 28.5199 2.66205 28.5199 2.87777C28.5199 3.09349 28.4357 3.29619 28.2832 3.44875Z" fill="#FFFDFD"/>
</g>
<defs>
<clipPath id="clip0_223_3103">
<rect width="30" height="30" fill="white"/>
</clipPath>
</defs>
</svg>
