<svg width="75" height="74" viewBox="0 0 75 74" fill="none" xmlns="http://www.w3.org/2000/svg">
<circle cx="37.4541" cy="37.0539" r="36.553" fill="#1DB4EF"/>
<g clip-path="url(#clip0_240_81)">
<path d="M32.6522 20.8699C32.4044 21.025 32.2205 21.2658 32.1348 21.5475C32.0491 21.8293 32.0673 22.1329 32.186 22.4021C32.3048 22.6714 32.516 22.8879 32.7806 23.0116C33.0452 23.1353 33.3451 23.1577 33.6248 23.0748C34.3279 22.7181 35.0507 22.4029 35.7898 22.1307C37.1568 21.6708 36.6931 19.5421 35.1876 19.7949C34.3105 20.0653 33.463 20.4255 32.6583 20.8699H32.6522ZM34.8624 36.9345V35.0433L37.6687 32.1441C37.8279 31.9857 37.9777 31.8179 38.1173 31.6416C38.2349 31.5027 38.336 31.3504 38.4184 31.1878C38.486 31.0452 38.521 30.8891 38.5208 30.731C38.5273 30.5837 38.4939 30.4373 38.4245 30.3077C38.3561 30.194 38.249 30.1095 38.1234 30.0701C37.9571 30.0163 37.783 29.9916 37.6085 29.997H35.0069V28.1058C35.4044 28.0145 35.847 27.9322 36.3378 27.8531C36.9022 27.7711 37.4719 27.7324 38.0421 27.7373C38.6174 27.7135 39.1909 27.8174 39.7222 28.0419C40.1096 28.2143 40.4212 28.5241 40.5985 28.9129C40.7839 29.3586 40.8722 29.8395 40.8574 30.3229C40.8626 30.6934 40.8097 31.0624 40.7008 31.4162C40.5951 31.742 40.4419 32.0499 40.2462 32.3298C40.0302 32.6366 39.7884 32.924 39.5235 33.1886L37.9698 34.7966H41.1013V36.9284L34.8624 36.9345ZM45.7022 36.9345V35.2504H41.9564L41.5439 34.2058L44.1545 27.8104H46.5634L44.3502 33.2374H45.7082V31.8852L46.1569 30.7066H48.0629V33.2374H48.7916V34.8819L48.0629 35.2504V36.9345H45.7022ZM28.0062 35.6189C29.0984 37.6791 30.4462 39.5898 32.0169 41.3047C33.8486 43.2473 36.0005 44.8528 38.3763 46.0495C38.4599 46.0948 38.5525 46.1207 38.6473 46.1255C38.742 46.1302 38.8366 46.1136 38.9243 46.0769C39.2146 45.9438 39.4748 45.7521 39.6891 45.5135C39.9371 45.2404 40.1674 44.9516 40.3786 44.6486C41.3994 43.2903 42.664 41.6032 44.4496 42.4467L44.558 42.5046L50.5109 45.9673L50.5711 46.0069C50.9361 46.2723 51.2296 46.626 51.4247 47.0356C51.6198 47.4452 51.7104 47.8977 51.6882 48.3518C51.6475 49.4043 51.3484 50.43 50.818 51.3363C50.1605 52.4803 49.155 53.3787 47.9515 53.8976C46.825 54.3872 45.636 54.7142 44.4195 54.869C42.61 55.1364 40.764 54.9801 39.0237 54.4122C37.1135 53.7644 35.2924 52.8741 33.6037 51.7627L33.4682 51.6744C32.583 51.1201 31.6315 50.5232 30.7011 49.8197C27.2745 47.2098 23.7937 43.4243 21.5264 39.2917C19.6264 35.8077 18.5875 32.0466 19.1566 28.4652C19.4577 26.5009 20.3039 24.7132 21.7552 23.5316C23.0198 22.4992 24.7271 21.9358 26.9372 22.1337C27.0617 22.1417 27.1821 22.1814 27.2874 22.249C27.3927 22.3166 27.4794 22.41 27.5395 22.5205L31.3454 29.0499C31.6006 29.3443 31.7666 29.7066 31.8237 30.0938C31.8809 30.481 31.8267 30.8766 31.6676 31.2335C31.3329 31.9057 30.8293 32.4771 30.2073 32.8902C29.9995 33.0699 29.7556 33.2465 29.4997 33.4353C28.6475 34.0596 27.675 34.7845 28.0092 35.6402V35.6189H28.0062ZM51.7244 42.2122C51.5945 42.4684 51.5584 42.7628 51.6227 43.0432C51.6869 43.3236 51.8473 43.572 52.0753 43.7443C52.3034 43.9165 52.5843 44.0015 52.8684 43.9842C53.1525 43.9669 53.4214 43.8484 53.6273 43.6497C53.6862 43.5839 53.7386 43.5125 53.7839 43.4365C54.2173 42.6662 54.5763 41.8554 54.8559 41.0154C54.9387 40.7383 54.9213 40.4404 54.8068 40.1751C54.6922 39.9098 54.488 39.6944 54.2307 39.5676C53.9734 39.4408 53.6798 39.4108 53.4026 39.483C53.1254 39.5552 52.8827 39.7249 52.718 39.9617C52.6689 40.0423 52.6285 40.1281 52.5976 40.2175C52.3677 40.9086 52.0744 41.5765 51.7213 42.2122H51.7244ZM53.5762 35.7955C53.5644 36.0871 53.6566 36.3732 53.8358 36.6018C54.015 36.8305 54.2694 36.9865 54.5528 37.0414C54.8361 37.0964 55.1295 37.0466 55.3796 36.9013C55.6298 36.7559 55.82 36.5245 55.9158 36.2493C55.9383 36.1707 55.9534 36.0902 55.9609 36.0087C56.0241 35.1261 56.012 34.2397 55.9248 33.3592C55.8885 33.0817 55.7589 32.8253 55.5577 32.6332C55.3564 32.441 55.0959 32.3248 54.82 32.3041C54.544 32.2833 54.2694 32.3594 54.0423 32.5193C53.8152 32.6793 53.6496 32.9135 53.5732 33.1826C53.5404 33.3231 53.5302 33.4681 53.543 33.612C53.6172 34.3374 53.6283 35.0681 53.5762 35.7955V35.7955ZM52.3958 29.3331C52.5477 29.5899 52.7876 29.7811 53.0699 29.8704C53.3521 29.9597 53.657 29.9408 53.9265 29.8174C54.1959 29.6939 54.411 29.4746 54.5307 29.201C54.6505 28.9275 54.6665 28.619 54.5758 28.3342C54.2176 27.5372 53.7935 26.7721 53.3082 26.0471C53.2294 25.8952 53.1198 25.7618 52.9866 25.6556C52.8533 25.5495 52.6994 25.473 52.5349 25.4312C52.3704 25.3894 52.199 25.3832 52.032 25.4131C51.865 25.4429 51.7061 25.5081 51.5656 25.6043C51.4252 25.7006 51.3065 25.8257 51.2173 25.9716C51.128 26.1175 51.0702 26.2808 51.0477 26.4508C51.0251 26.6208 51.0384 26.7937 51.0865 26.9582C51.1346 27.1228 51.2165 27.2751 51.3269 27.4054C51.7355 28.0168 52.0931 28.6616 52.3958 29.3331V29.3331ZM48.3158 24.1985C49.5714 25.1274 51.0258 23.2849 49.7551 22.2647C49.0634 21.7405 48.3314 21.2731 47.5661 20.8668C46.3376 20.2182 45.1422 21.9145 46.2472 22.8707C46.3135 22.9257 46.3851 22.9737 46.461 23.0139C47.1097 23.3578 47.73 23.7539 48.3158 24.1985V24.1985ZM42.2937 21.6038C42.5779 21.646 42.8676 21.5841 43.1107 21.4292C43.3537 21.2743 43.534 21.0367 43.619 20.7592C43.7041 20.4817 43.6882 20.1826 43.5744 19.9159C43.4606 19.6491 43.2563 19.4323 42.9983 19.3045C42.9023 19.2601 42.8011 19.2284 42.6972 19.2101C41.8415 19.0742 40.9768 19.0039 40.1107 19C39.7912 19 39.4849 19.1283 39.259 19.3568C39.0331 19.5852 38.9062 19.8951 38.9062 20.2182C38.9062 20.5413 39.0331 20.8511 39.259 21.0795C39.4849 21.308 39.7912 21.4363 40.1107 21.4363C40.8438 21.4423 41.5755 21.5034 42.2997 21.6191L42.2937 21.6038Z" fill="white"/>
</g>
<defs>
<clipPath id="clip0_240_81">
<rect width="37" height="36" fill="white" transform="translate(19 19)"/>
</clipPath>
</defs>
</svg>
