<svg width="39" height="39" viewBox="0 0 39 39" fill="none" xmlns="http://www.w3.org/2000/svg">
<path d="M30.875 3.25H8.125C6.83207 3.25 5.59209 3.76361 4.67785 4.67785C3.76362 5.59209 3.25 6.83207 3.25 8.125V10.0262C3.24977 10.6973 3.38807 11.3611 3.65625 11.9762V12.0737C3.88583 12.5953 4.21101 13.0693 4.615 13.4712L14.625 23.4162V34.125C14.6244 34.4012 14.6943 34.6729 14.8279 34.9146C14.9615 35.1563 15.1546 35.3599 15.3888 35.5062C15.6474 35.6665 15.9458 35.751 16.25 35.75C16.5044 35.7485 16.7549 35.6872 16.9812 35.5712L23.4812 32.3212C23.7492 32.1862 23.9746 31.9796 24.1323 31.7243C24.2901 31.4691 24.3741 31.1751 24.375 30.875V23.4162L34.32 13.4712C34.724 13.0693 35.0492 12.5953 35.2787 12.0737V11.9762C35.5693 11.3659 35.7298 10.7019 35.75 10.0262V8.125C35.75 6.83207 35.2364 5.59209 34.3221 4.67785C33.4079 3.76361 32.1679 3.25 30.875 3.25ZM21.5963 21.5962C21.4456 21.7481 21.3265 21.9282 21.2456 22.1262C21.1648 22.3241 21.1238 22.5361 21.125 22.75V29.8675L17.875 31.4925V22.75C17.8762 22.5361 17.8352 22.3241 17.7544 22.1262C17.6735 21.9282 17.5544 21.7481 17.4038 21.5962L8.79125 13H30.2087L21.5963 21.5962ZM32.5 9.75H6.5V8.125C6.5 7.69402 6.67121 7.2807 6.97595 6.97595C7.2807 6.67121 7.69402 6.5 8.125 6.5H30.875C31.306 6.5 31.7193 6.67121 32.024 6.97595C32.3288 7.2807 32.5 7.69402 32.5 8.125V9.75Z" fill="white"/>
</svg>
