<svg width="131" height="131" viewBox="0 0 131 131" fill="none" xmlns="http://www.w3.org/2000/svg">
<circle cx="65.0151" cy="65.0151" r="65.0151" fill="white"/>
<g clip-path="url(#clip0_298_78)">
<path d="M78.4375 60.3125C80 58.75 81.25 57.8125 82.1875 56.875C87.1875 51.875 92.1875 44.0625 89.0625 40.9375C85.9375 37.8125 78.4375 42.8125 73.4375 47.8125C72.5 48.75 71.5625 50 70 51.5625L48.125 41.5625C45.9375 40.625 43.4375 40.9375 41.875 42.5L40 44.0625L60.625 61.875C56.5625 66.875 52.1875 71.5625 50 74.375L46.5625 72.5C45 71.5625 42.8125 71.5625 41.5625 73.125L40.625 74.0625L49.375 80.625L55.625 89.375L56.5625 88.4375C57.8125 87.1875 58.125 85 57.1875 83.4375L55.625 80C58.4375 77.8125 63.125 73.4375 68.125 69.375L85.9375 90L87.5 88.4375C89.0625 86.875 89.375 84.375 88.4375 82.1875L78.4375 60.3125Z" fill="#1B79CC"/>
</g>
<defs>
<clipPath id="clip0_298_78">
<rect width="50" height="50" fill="white" transform="translate(40 40)"/>
</clipPath>
</defs>
</svg>
