<svg width="131" height="131" viewBox="0 0 131 131" fill="none" xmlns="http://www.w3.org/2000/svg">
<circle cx="65.0151" cy="65.0151" r="65.0151" fill="white"/>
<path d="M86.7126 40.475H43.2876V43.4H86.7126V40.475Z" fill="#1B76CA"/>
<path d="M86.7124 98.75H43.3999V101H86.7124V98.75Z" fill="#1B76CA"/>
<path d="M78.275 50.6H74.675V54.65H78.275V50.6Z" fill="#1B76CA"/>
<path d="M69.8375 87.95V96.3875H60.05V87.95C60.05 85.25 62.3 83 65 83C67.7 83 69.8375 85.25 69.8375 87.95Z" fill="#1B76CA"/>
<path d="M46.4375 45.7625V96.3875H57.8V87.95C57.8 83.9 61.0625 80.75 65 80.75C69.05 80.75 72.2 84.0125 72.2 87.95V96.3875H83.5625V45.7625H46.4375ZM57.6875 77.15C57.6875 77.825 57.125 78.275 56.5625 78.275H50.6C49.925 78.275 49.475 77.7125 49.475 77.15V70.7375C49.475 70.0625 50.0375 69.6125 50.6 69.6125H56.5625C57.2375 69.6125 57.6875 70.175 57.6875 70.7375V77.15ZM57.6875 66.4625C57.6875 67.1375 57.125 67.5875 56.5625 67.5875H50.6C49.925 67.5875 49.475 67.025 49.475 66.4625V60.05C49.475 59.375 50.0375 58.925 50.6 58.925H56.5625C57.2375 58.925 57.6875 59.4875 57.6875 60.05V66.4625ZM57.6875 55.775C57.6875 56.45 57.125 56.9 56.5625 56.9H50.6C49.925 56.9 49.475 56.3375 49.475 55.775V49.3625C49.475 48.6875 50.0375 48.2375 50.6 48.2375H56.5625C57.2375 48.2375 57.6875 48.8 57.6875 49.3625V55.775ZM69.1625 77.15C69.1625 77.825 68.6 78.275 68.0375 78.275H62.075C61.4 78.275 60.95 77.7125 60.95 77.15V70.7375C60.95 70.0625 61.5125 69.6125 62.075 69.6125H68.0375C68.7125 69.6125 69.1625 70.175 69.1625 70.7375V77.15ZM69.1625 66.4625C69.1625 67.1375 68.6 67.5875 68.0375 67.5875H62.075C61.4 67.5875 60.95 67.025 60.95 66.4625V60.05C60.95 59.375 61.5125 58.925 62.075 58.925H68.0375C68.7125 58.925 69.1625 59.4875 69.1625 60.05V66.4625ZM69.1625 55.775C69.1625 56.45 68.6 56.9 68.0375 56.9H62.075C61.4 56.9 60.95 56.3375 60.95 55.775V49.3625C60.95 48.6875 61.5125 48.2375 62.075 48.2375H68.0375C68.7125 48.2375 69.1625 48.8 69.1625 49.3625V55.775ZM80.6375 77.15C80.6375 77.825 80.075 78.275 79.5125 78.275H73.55C72.875 78.275 72.425 77.7125 72.425 77.15V70.7375C72.425 70.0625 72.9875 69.6125 73.55 69.6125H79.5125C80.1875 69.6125 80.6375 70.175 80.6375 70.7375V77.15ZM80.6375 66.4625C80.6375 67.1375 80.075 67.5875 79.5125 67.5875H73.55C72.875 67.5875 72.425 67.025 72.425 66.4625V60.05C72.425 59.375 72.9875 58.925 73.55 58.925H79.5125C80.1875 58.925 80.6375 59.4875 80.6375 60.05V66.4625ZM80.6375 55.775C80.6375 56.45 80.075 56.9 79.5125 56.9H73.55C72.875 56.9 72.425 56.3375 72.425 55.775V49.3625C72.425 48.6875 72.9875 48.2375 73.55 48.2375H79.5125C80.1875 48.2375 80.6375 48.8 80.6375 49.3625V55.775Z" fill="#1B76CA"/>
<path d="M55.3251 50.6H51.7251V54.65H55.3251V50.6Z" fill="#1B76CA"/>
<path d="M66.7999 50.6H63.2V54.65H66.7999V50.6Z" fill="#1B76CA"/>
<path d="M55.3251 61.2875H51.7251V65.3375H55.3251V61.2875Z" fill="#1B76CA"/>
<path d="M66.7999 61.2875H63.2V65.3375H66.7999V61.2875Z" fill="#1B76CA"/>
<path d="M78.275 61.2875H74.675V65.3375H78.275V61.2875Z" fill="#1B76CA"/>
<path d="M55.3251 71.975H51.7251V76.025H55.3251V71.975Z" fill="#1B76CA"/>
<path d="M66.7999 71.975H63.2V76.025H66.7999V71.975Z" fill="#1B76CA"/>
<path d="M78.275 71.975H74.675V76.025H78.275V71.975Z" fill="#1B76CA"/>
<path d="M81.0874 34.85L81.6499 38.1125L78.725 36.5375L75.7999 38.1125L76.3624 34.85L73.8875 32.4875L77.2625 32.0375L78.725 29L80.1874 32.0375L83.5624 32.4875L81.0874 34.85Z" fill="#1B76CA"/>
<path d="M81.0874 34.85L81.6499 38.1125L78.725 36.5375L75.7999 38.1125L76.3624 34.85L73.8875 32.4875L77.2625 32.0375L78.725 29L80.1874 32.0375L83.5624 32.4875L81.0874 34.85Z" fill="#1B76CA"/>
<path d="M67.3626 34.85L67.9251 38.1125L65.0001 36.5375L62.0751 38.1125L62.5251 35.4125L62.6376 34.85L60.1626 32.4875L63.5376 32.0375L65.0001 29L66.4626 32.0375L69.8376 32.4875L67.3626 34.85Z" fill="#1B76CA"/>
<path d="M67.3626 34.85L67.9251 38.1125L65.0001 36.5375L62.0751 38.1125L62.5251 35.4125L62.6376 34.85L60.1626 32.4875L63.5376 32.0375L65.0001 29L66.4626 32.0375L69.8376 32.4875L67.3626 34.85Z" fill="#1B76CA"/>
<path d="M53.6375 34.85L54.2 38.1125L51.275 36.5375L48.35 38.1125L48.9125 34.85L46.4375 32.4875L49.8125 32.0375L51.275 29L52.7375 32.0375L56.1125 32.4875L53.6375 34.85Z" fill="#1B76CA"/>
<path d="M53.6375 34.85L54.2 38.1125L51.275 36.5375L48.35 38.1125L48.9125 34.85L46.4375 32.4875L49.8125 32.0375L51.275 29L52.7375 32.0375L56.1125 32.4875L53.6375 34.85Z" fill="#1B76CA"/>
</svg>
