<svg width="29" height="25" viewBox="0 0 29 25" fill="none" xmlns="http://www.w3.org/2000/svg">
<path fill-rule="evenodd" clip-rule="evenodd" d="M14.5 4.30978C19.189 4.30978 22.9902 8.11094 22.9902 12.8C22.9902 17.489 19.189 21.2902 14.5 21.2902C9.81099 21.2902 6.00977 17.4891 6.00977 12.8C6.00977 8.11101 9.81092 4.30978 14.5 4.30978ZM14.5 6.47279C16.2472 6.47279 17.8291 7.18095 18.9742 8.32607C20.1193 9.47119 20.8275 11.0529 20.8275 12.8003C20.8275 14.5476 20.1193 16.1293 18.9742 17.2745C17.8291 18.4196 16.2473 19.1277 14.5 19.1277C12.7527 19.1277 11.1709 18.4196 10.0258 17.2745C8.88066 16.1293 8.1725 14.5476 8.1725 12.8003C8.1725 11.0529 8.88066 9.47119 10.0258 8.32607C11.1709 7.18095 12.7527 6.47279 14.5 6.47279ZM18.6526 8.64762C17.5899 7.58488 16.1217 6.92762 14.5 6.92762C12.8783 6.92762 11.4101 7.58489 10.3473 8.64762C9.28459 9.71035 8.62733 11.1786 8.62733 12.8003C8.62733 14.422 9.2846 15.8902 10.3473 16.9529C11.4101 18.0157 12.8783 18.6729 14.5 18.6729C16.1217 18.6729 17.5899 18.0156 18.6526 16.9529C19.7154 15.8902 20.3726 14.422 20.3726 12.8003C20.3726 11.1786 19.7154 9.71035 18.6526 8.64762ZM14.5 10.6068C15.1056 10.6068 15.654 10.8523 16.0508 11.2492C16.4477 11.646 16.6932 12.1944 16.6932 12.8C16.6932 13.4056 16.4477 13.9541 16.0508 14.3509C15.654 14.7477 15.1056 14.9932 14.5 14.9932C13.8944 14.9932 13.3459 14.7477 12.9491 14.3509C12.5523 13.9541 12.3068 13.4057 12.3068 12.8C12.3068 12.1944 12.5523 11.646 12.9491 11.2492C13.3459 10.8523 13.8944 10.6068 14.5 10.6068ZM15.7293 11.5707C15.4148 11.2562 14.98 11.0616 14.5 11.0616C14.02 11.0616 13.5854 11.2562 13.2707 11.5707C12.9562 11.8852 12.7616 12.32 12.7616 12.8C12.7616 13.28 12.9562 13.7146 13.2707 14.0293C13.5851 14.3438 14.02 14.5384 14.5 14.5384C14.98 14.5384 15.4145 14.3438 15.7293 14.0293C16.0438 13.7148 16.2384 13.28 16.2384 12.8C16.2384 12.32 16.0438 11.8854 15.7293 11.5707Z" fill="#999999"/>
<path d="M26.9252 6.70612V15.8322H26.0156V6.70612H26.9252Z" fill="#999999"/>
<path fill-rule="evenodd" clip-rule="evenodd" d="M26.1419 14.727H26.7986C27.0502 14.727 27.2427 14.9331 27.2558 15.1841L27.65 22.8136C27.7788 25.3047 25.1613 25.3126 25.2908 22.8036L25.6845 15.1836C25.6976 14.9326 25.8901 14.7264 26.1416 14.7264L26.1419 14.727Z" fill="#999999"/>
<path fill-rule="evenodd" clip-rule="evenodd" d="M26.4703 0.91571C27.6463 0.91571 28.5997 4.01187 28.5997 5.58006C28.5997 7.14818 27.6463 7.81101 26.4703 7.81101C25.2942 7.81101 24.3408 7.14824 24.3408 5.58006C24.3408 4.01194 25.2942 0.91571 26.4703 0.91571Z" fill="#999999"/>
<path d="M2.9838 6.70612V15.8322H2.07422V6.70612H2.9838Z" fill="#4B71C3"/>
<path fill-rule="evenodd" clip-rule="evenodd" d="M2.20049 14.727H2.85723C3.10875 14.727 3.30126 14.9331 3.31438 15.1841L3.70858 22.8136C3.83736 25.3047 1.21986 25.3126 1.34938 22.8036L1.74306 15.1836C1.75591 14.9326 1.94868 14.7264 2.20021 14.7264L2.20049 14.727Z" fill="#999999"/>
<path fill-rule="evenodd" clip-rule="evenodd" d="M2.52885 0.91571C3.70493 0.91571 4.65829 4.01187 4.65829 5.58006C4.65829 7.14818 3.70493 7.81101 2.52885 7.81101C1.35278 7.81101 0.399414 7.14824 0.399414 5.58006C0.399414 4.01194 1.35278 0.91571 2.52885 0.91571Z" fill="#999999"/>
</svg>
