<svg width="25" height="25" viewBox="0 0 25 25" fill="none" xmlns="http://www.w3.org/2000/svg">
<g clip-path="url(#clip0_183_311)">
<path d="M23.9047 15.2383C23.5922 14.6922 23.0859 14.3031 22.4805 14.1414C21.875 13.9797 21.2437 14.0664 20.7391 14.3609L16.6258 16.4633C16.1945 15.9547 15.5602 15.625 14.8438 15.625H8.59375C7.48672 15.625 6.34375 16.2273 5.57734 17.1875H4.6875C4.6875 16.7563 4.3375 16.4062 3.90625 16.4062H1.5625C1.13125 16.4062 0.78125 16.7563 0.78125 17.1875V23.4375C0.78125 23.8687 1.13125 24.2188 1.5625 24.2188H3.90625C4.3375 24.2188 4.6875 23.8687 4.6875 23.4375H13.2812C13.8602 23.4375 14.6617 23.1969 15.0969 22.9062L23.0391 18.4406L23.1172 18.3906C24.2148 17.5891 24.5312 16.3219 23.9047 15.2383ZM3.125 22.6562H2.34375V17.9688H3.125V22.6562ZM22.2297 17.1039L14.2836 21.5734C14.0531 21.7258 13.557 21.875 13.2812 21.875H4.6875V18.75H5.97656C6.24219 18.75 6.48984 18.6148 6.63359 18.3914C7.09688 17.6711 7.88438 17.1875 8.59375 17.1875H14.8438C15.275 17.1875 15.625 17.5383 15.625 17.9688C15.625 18.3992 15.275 18.75 14.8438 18.75H10.1562C9.725 18.75 9.375 19.1 9.375 19.5312C9.375 19.9625 9.725 20.3125 10.1562 20.3125H14.8438C16.1359 20.3125 17.1875 19.2609 17.1875 17.9688C17.1875 17.9562 17.1836 17.9445 17.1836 17.9328L21.4875 15.732C21.668 15.6266 21.8789 15.5984 22.0766 15.6508C22.2773 15.7047 22.4453 15.8336 22.5508 16.0188C22.8273 16.4961 22.5375 16.868 22.2297 17.1039ZM3.125 13.2812H21.875C22.307 13.2812 22.6562 12.9312 22.6562 12.5V1.5625C22.6562 1.13125 22.307 0.78125 21.875 0.78125H3.125C2.69375 0.78125 2.34375 1.13125 2.34375 1.5625V12.5C2.34375 12.9312 2.69375 13.2812 3.125 13.2812ZM6.95234 2.34375H18.0484C18.3594 3.87188 19.5656 5.07812 21.0938 5.38984V8.67266C19.5656 8.98438 18.3594 10.1906 18.0484 11.7188H6.95234C6.64062 10.1906 5.43437 8.98438 3.90625 8.67266V5.38984C5.43437 5.07812 6.64062 3.87188 6.95234 2.34375ZM3.90625 10.3C4.56797 10.5359 5.08906 11.057 5.325 11.7188H3.90625V10.3ZM19.6758 11.7188C19.9117 11.057 20.432 10.5359 21.0938 10.3V11.7188H19.6758ZM21.0938 3.76172C20.4312 3.52656 19.9109 3.00547 19.6758 2.34375H21.0938V3.76172ZM5.325 2.34375C5.08906 3.00547 4.56797 3.52656 3.90625 3.7625V2.34375H5.325Z" fill="#999999"/>
<path d="M12.5 10.9375C14.6539 10.9375 16.4062 9.18516 16.4062 7.03125C16.4062 4.87734 14.6539 3.125 12.5 3.125C10.3461 3.125 8.59375 4.87734 8.59375 7.03125C8.59375 9.18516 10.3461 10.9375 12.5 10.9375ZM12.5 4.6875C13.7922 4.6875 14.8438 5.73906 14.8438 7.03125C14.8438 8.32344 13.7922 9.375 12.5 9.375C11.2078 9.375 10.1562 8.32344 10.1562 7.03125C10.1562 5.73906 11.2078 4.6875 12.5 4.6875Z" fill="#999999"/>
</g>
<defs>
<clipPath id="clip0_183_311">
<rect width="25" height="25" fill="white"/>
</clipPath>
</defs>
</svg>
