<svg width="17" height="18" viewBox="0 0 17 18" fill="none" xmlns="http://www.w3.org/2000/svg">
<path d="M16.8929 11.9C16.786 11.7786 16.6211 11.7334 16.4709 11.7841C14.5139 12.4446 12.3886 12.2953 10.5339 11.3669C8.67942 10.4385 7.23741 8.80207 6.50555 6.79545C5.77375 4.78892 5.80829 2.56591 6.60196 0.58492C6.66297 0.432996 6.63364 0.257693 6.52671 0.136403C6.41991 0.0149669 6.25506 -0.0302487 6.10483 0.0205229C4.18039 0.671869 2.52855 1.99358 1.42601 3.76423C0.32356 5.53486 -0.16292 7.64718 0.0482103 9.74723C0.25922 11.8474 1.155 13.8084 2.58538 15.3016C3.95662 16.7326 5.74087 17.6525 7.66277 17.9194C9.58462 18.1865 11.5372 17.7856 13.2192 16.7787C14.9012 15.7719 16.2187 14.215 16.9688 12.3488C17.0297 12.1966 17 12.0213 16.8928 11.9L16.8929 11.9ZM8.82595 17.1567C6.99013 17.1564 5.20975 16.4987 3.78278 15.2933C2.35559 14.0879 1.36774 12.4078 0.984356 10.5336C0.600938 8.65953 0.845129 6.70493 1.67617 4.99611C2.50719 3.28737 3.87463 1.92782 5.55027 1.14492C5.08802 2.74218 5.04918 4.44021 5.43802 6.05871C5.82676 7.67703 6.62857 9.15517 7.75811 10.3355C8.57589 11.1937 9.54866 11.874 10.6199 12.3371C11.6913 12.8003 12.84 13.0369 13.9998 13.0336C14.6215 13.0337 15.2415 12.9656 15.8496 12.8302C15.158 14.1424 14.1412 15.2365 12.9055 15.9976C11.6699 16.7588 10.2609 17.1591 8.82608 17.1567L8.82595 17.1567Z" fill="black"/>
</svg>
