<svg width="74" height="74" viewBox="0 0 74 74" fill="none" xmlns="http://www.w3.org/2000/svg">
<circle cx="36.6493" cy="37.0539" r="36.553" fill="#1DB4EF"/>
<g clip-path="url(#clip0_240_80)">
<path fill-rule="evenodd" clip-rule="evenodd" d="M37.5277 20.7347C39.796 22.175 42.2419 23.3343 44.8082 24.1854C46.7123 24.8267 48.7305 25.0898 50.742 24.9592L52.8288 24.7756L52.9314 26.805C53.314 34.2695 52.07 40.7553 49.4607 45.8711C46.7457 51.1947 42.5721 55.0398 37.2136 56.991H35.8203C30.5831 55.1392 26.4406 51.3994 23.6914 46.0096C21.1257 40.951 19.8102 34.417 20.0216 26.6243L20.0776 24.622L22.1333 24.7244C24.3711 24.8649 26.6175 24.6421 28.7793 24.0649C31.1195 23.4031 33.3047 22.3079 35.2139 20.8401L36.3304 20L37.5277 20.7347ZM36.461 25.8114C40.6688 28.3949 44.4692 29.6174 47.7316 29.3343C48.3007 40.4753 44.0462 48.9906 36.5045 51.7397C29.2178 49.1652 24.9105 40.945 25.2308 29.1567C29.0592 29.3524 32.8192 28.5544 36.461 25.8114ZM34.1534 38.5512C34.4437 38.791 34.7179 39.0485 34.9744 39.322C35.7497 38.1117 36.609 36.9538 37.5464 35.8563C40.109 32.8603 39.3439 33.056 42.8986 33.056L42.3917 33.5859C41.0571 35.0353 39.8308 36.5749 38.7219 38.1929C37.4893 39.9187 36.3715 41.719 35.3756 43.5827L35.0646 44.1578L34.7816 43.5737C34.2789 42.5114 33.6428 41.5132 32.8876 40.6017C32.2063 39.7683 31.3928 39.0447 30.4774 38.4578C30.9408 36.9854 33.1489 37.7412 34.1378 38.5512H34.1534ZM36.4485 22.3818C41.8537 25.6939 46.7333 27.2657 50.9255 26.8984C51.6564 41.228 46.189 51.6403 36.5045 55.1723C27.1528 51.8631 21.6202 41.8152 22.0307 26.6785C26.9476 26.9255 31.7742 25.8987 36.4485 22.3818Z" fill="white"/>
</g>
<defs>
<clipPath id="clip0_240_80">
<rect width="33" height="37" fill="white" transform="translate(20 20)"/>
</clipPath>
</defs>
</svg>
