<svg width="75" height="74" viewBox="0 0 75 74" fill="none" xmlns="http://www.w3.org/2000/svg">
<circle cx="37.5227" cy="37.0539" r="36.553" fill="#1DB4EF"/>
<path fill-rule="evenodd" clip-rule="evenodd" d="M46.0097 34.2491H50.9542V33.3153C50.6715 32.2938 50.2213 31.6013 49.6382 31.1801C49.055 30.7596 48.2991 30.5798 47.4117 30.5858L27.1327 30.5903C26.6334 30.5903 26.2293 30.1953 26.2293 29.7089C26.2293 29.2217 26.6334 28.8275 27.1327 28.8275L47.3879 28.8298C48.6625 28.8178 49.7872 29.1011 50.7106 29.7688C50.7936 29.8288 50.8751 29.8918 50.9542 29.9577V29.4278C50.9542 28.6049 50.6062 27.8525 50.0461 27.3061C49.4906 26.7598 48.7209 26.4218 47.8727 26.4218H47.2204L47.1367 26.418L46.8179 27.5842H44.6268L45.9267 22.8273C44.8342 22.5425 44.1827 21.4408 44.4754 20.3751L37.2453 18.4857C36.9526 19.5507 35.8241 20.1877 34.7331 19.9022L32.6104 27.5842H30.351L33.7889 15.1221L49.1311 19.1325L47.6184 24.6583H47.8727C49.2133 24.6583 50.4356 25.1971 51.3222 26.0613C52.2103 26.9239 52.7611 28.1185 52.7611 29.4278V34.2986C53.2828 34.3998 53.7491 34.6516 54.111 35.0046C54.5881 35.47 54.8854 36.1145 54.8854 36.8243V42.6214C54.8854 43.3611 54.575 44.0341 54.0772 44.519C53.7215 44.866 53.2682 45.1201 52.7611 45.2362V48.7332C52.7611 50.0418 52.2095 51.2357 51.3229 52.1005L51.2661 52.1515C50.3826 52.9857 49.1833 53.5028 47.8727 53.5028H25.0484C23.7063 53.5028 22.4825 52.9654 21.5959 52.1013C20.7108 51.2379 20.16 50.0455 20.16 48.7332V29.4278C20.16 28.1148 20.7101 26.9224 21.5951 26.059C22.4801 25.1956 23.7032 24.6583 25.0484 24.6583H27.9002L27.9125 24.659L30.1827 16.4337L32.3485 16.9995L29.373 27.5842H27.1051L27.4262 26.4218H25.0484C24.2026 26.4218 23.432 26.7605 22.8727 27.3054C22.3142 27.8502 21.967 28.6027 21.967 29.4278V48.7332C21.967 49.5584 22.315 50.3093 22.8743 50.8542C23.4336 51.4006 24.2049 51.7401 25.0484 51.7401H47.8727C48.697 51.7401 49.4507 51.4178 50.0038 50.8969L50.0453 50.8534C50.6054 50.3078 50.9542 49.5554 50.9542 48.7332V45.3074H46.0097C44.4824 45.3074 43.0933 44.6974 42.09 43.7186L41.9955 43.6174C41.0459 42.6431 40.4605 41.33 40.4605 39.8941V39.6617C40.4605 38.1786 41.0851 36.8265 42.09 35.844L42.1 35.8342C43.1064 34.8562 44.4908 34.2491 46.0097 34.2491ZM38.6566 27.2746C39.9773 27.6194 41.3371 26.8549 41.6905 25.5659C42.0447 24.2775 41.2595 22.951 39.9389 22.6062C38.6175 22.2615 37.2576 23.0259 36.9042 24.315C36.5508 25.6033 37.336 26.9291 38.6566 27.2746ZM47.9941 38.2857L47.9987 38.2895C48.8384 39.1109 48.8361 40.4472 47.9972 41.2678L47.9933 41.2723C47.1513 42.0915 45.7815 42.0892 44.9395 41.2708L44.9356 41.2671C44.0959 40.4457 44.0982 39.1094 44.9372 38.288L44.941 38.2842C45.783 37.4651 47.1528 37.4666 47.9941 38.2857Z" fill="white"/>
</svg>
