<svg width="24" height="24" viewBox="0 0 24 24" fill="none" xmlns="http://www.w3.org/2000/svg">
<path d="M23.2446 18.9399L19.2838 14.0076C18.9769 13.6453 18.5306 13.4224 18.0564 13.4224L14.4302 13.4225L13.5934 11.472H16.9686C17.5822 11.472 18.1679 11.0541 18.2796 10.441C18.4191 9.66076 17.8054 8.96411 17.0522 8.96411L13.426 8.96392C13.426 8.96392 12.2267 7.82137 11.6408 7.31989C10.7762 6.53964 10.023 6.31672 9.1305 6.59542C8.46101 6.79058 7.90314 7.26425 7.59631 7.87735C7.28949 8.49045 7.26165 9.24283 7.54047 9.88369L9.93931 15.6241C10.1903 16.2093 10.7762 16.5995 11.3898 16.5995H16.8848C17.108 16.5995 17.3031 16.7108 17.4426 16.8782L20.7898 21.0581C21.0966 21.4482 21.5708 21.6433 22.0172 21.6433C22.3518 21.6433 22.6867 21.532 22.9935 21.309C23.7465 20.7233 23.8024 19.6366 23.2445 18.94L23.2446 18.9399Z" fill="#999999"/>
<path d="M9.16337 1.2187C10.4189 1.91611 10.8714 3.49911 10.1742 4.75463C9.47678 6.01034 7.8938 6.46286 6.6383 5.76545C5.3826 5.06823 4.93008 3.48523 5.62729 2.22952C6.3247 0.974011 7.90768 0.521485 9.16337 1.2187Z" fill="#999999"/>
<path d="M16.5826 18.5894C16.3873 18.3662 16.1085 18.2267 15.8295 18.2267L11.2003 18.2269C10.0012 18.2269 8.9414 17.5297 8.49515 16.4142L4.84187 7.57305C4.42363 6.56901 3.30798 6.03905 2.24838 6.34584C1.66263 6.51315 1.16075 6.93163 0.909804 7.48938C0.658857 8.04713 0.630845 8.68855 0.881987 9.2465L6.2086 22.048C6.54319 22.8289 7.29623 23.3589 8.16071 23.3589H18.4235C18.8139 23.3589 19.1485 23.1357 19.316 22.8011C19.4833 22.4665 19.4275 22.048 19.1765 21.7412L16.5826 18.5894Z" fill="#999999"/>
</svg>
