<svg width="131" height="131" viewBox="0 0 131 131" fill="none" xmlns="http://www.w3.org/2000/svg">
<circle cx="65.0151" cy="65.0151" r="65.0151" fill="white"/>
<path d="M81.1968 86.5158L81.007 86.1529L81.1027 86.0168L81.1985 85.8807C82.9053 85.1834 84.5196 84.2783 86.005 83.186C87.4397 82.1108 88.4006 80.5417 88.8962 78.4669L89.2574 76.807V33.9318C89.2574 32.8969 88.9483 31.8234 88.3385 30.7314C87.7321 29.6243 86.9586 28.6173 86.0453 27.746C85.1349 26.8685 84.1028 26.1268 82.981 25.5435C81.8453 24.9656 80.7634 24.68 79.7234 24.68H49.0382C48.0588 24.68 47.0021 24.9488 45.8714 25.4982C44.7372 26.0488 43.6881 26.7601 42.7567 27.6099C41.8299 28.4386 41.0415 29.4101 40.4215 30.4878C39.81 31.5714 39.5026 32.6163 39.5026 33.663V77.1766C39.5026 77.9091 39.6958 78.6735 40.0519 79.4665C40.4215 80.2628 40.8785 81.007 41.4262 81.7026C41.9738 82.4182 42.577 83.0583 43.2187 83.6346C43.8605 84.2108 44.4838 84.6879 45.097 85.0525C45.3926 85.1768 45.9353 85.3683 46.7047 85.6119C47.4574 85.8538 47.8102 86.0336 47.753 86.1512L35.1934 105.212H42.5198L51.6876 91.9254H76.98L86.1377 105.212H93.5599L81.1968 86.5158ZM57.0938 28.3407C57.0938 28.0333 57.24 27.7191 57.5525 27.3747C57.8532 27.0404 58.1573 26.8791 58.4681 26.8791H70.1978C70.3154 26.8791 70.5691 26.9967 70.9337 27.237C71.2949 27.4822 71.478 27.7258 71.478 27.9694V32.4584C71.478 32.7658 71.3234 33.0481 71.0227 33.2816C70.7136 33.5336 70.4347 33.6613 70.1995 33.6613H58.3807L58.0078 33.3706C57.7911 33.2258 57.592 33.0561 57.4147 32.865C57.317 32.7814 57.238 32.6783 57.1827 32.5622C57.1274 32.4462 57.0971 32.3198 57.0938 32.1913V28.3407ZM45.2717 40.8937C45.2717 40.2838 45.4162 39.6858 45.6866 39.1028C45.9588 38.5232 46.3133 37.994 46.74 37.4984C47.1701 37.0078 47.6741 36.6231 48.2486 36.3157C48.7995 36.0165 49.416 35.8583 50.0429 35.8554H78.5407C79.0817 35.8554 79.6327 35.983 80.1821 36.2149C80.7331 36.4602 81.2354 36.8029 81.6974 37.2262C82.1578 37.6496 82.519 38.12 82.7978 38.6072C83.07 39.0843 83.2044 39.6085 83.2044 40.1578V49.8733C83.2044 50.4243 83.0566 50.9451 82.7508 51.4693C82.4436 52.0024 82.0397 52.4736 81.5597 52.8586C81.0846 53.2426 80.5602 53.5612 80.0006 53.8062C79.4872 54.0516 78.925 54.1779 78.3559 54.1758H50.226L49.7623 54.0934C49.5719 54.0498 49.3866 53.9862 49.2096 53.9036C48.1764 53.7255 47.2625 53.1728 46.4662 52.2538C45.6698 51.3366 45.2717 50.3319 45.2717 49.2349V40.8937ZM53.754 78.7374C52.8082 79.7134 51.6238 80.2006 50.226 80.2006C48.8198 80.2006 47.6724 79.7134 46.782 78.7374C45.8983 77.763 45.4565 76.5634 45.4565 75.1573C45.4565 73.8754 45.9168 72.765 46.8358 71.8208C47.7497 70.8716 48.8803 70.3911 50.226 70.3911C51.6238 70.3911 52.8065 70.8447 53.754 71.7166C54.7015 72.6121 55.1736 73.7763 55.1736 75.253C55.1736 76.5987 54.7015 77.763 53.754 78.7374ZM74.7355 78.7374C73.7914 77.763 73.3109 76.5634 73.3109 75.1573C73.3109 73.7494 73.8132 72.6121 74.8229 71.7166C75.7959 70.8517 77.0557 70.3792 78.3576 70.3911C79.752 70.3911 80.9045 70.8699 81.7898 71.8208C82.6718 72.765 83.1221 73.8771 83.1221 75.1573C83.1221 76.5634 82.6601 77.763 81.7445 78.7374C80.8222 79.7134 79.668 80.2006 78.2568 80.2006C76.8557 80.2006 75.6797 79.7134 74.7355 78.7374Z" fill="#1B7BCD"/>
</svg>
