<svg width="34" height="34" viewBox="0 0 34 34" fill="none" xmlns="http://www.w3.org/2000/svg">
<g clip-path="url(#clip0_31_242)">
<path fill-rule="evenodd" clip-rule="evenodd" d="M17.0051 0C26.39 0 34.0102 7.60996 34.0102 17.0051C34.0102 26.39 26.4002 34.0102 17.0051 34.0102C7.62016 34.0102 0 26.4002 0 17.0051C0 7.62016 7.60996 0 17.0051 0ZM26.186 11.3027C25.5128 11.6088 24.7885 11.8026 24.0234 11.8944C24.7987 11.4251 25.4005 10.6907 25.676 9.81338C24.9517 10.2418 24.1356 10.5581 23.2889 10.7315C22.5953 9.997 21.6262 9.54815 20.5347 9.54815C18.4536 9.54815 16.7705 11.2313 16.7705 13.3123C16.7705 13.6082 16.8011 13.8938 16.8623 14.1692C13.7306 14.006 10.9559 12.5167 9.09931 10.2316C8.76268 10.8029 8.58926 11.4557 8.58926 12.129C8.58926 13.4347 9.25233 14.5875 10.2622 15.2607C9.63996 15.2403 9.06871 15.0669 8.55866 14.7915V14.8425C8.55866 16.6685 9.85419 18.1884 11.5782 18.5353C11.2619 18.6169 10.9253 18.6679 10.5887 18.6679C10.3438 18.6679 10.1092 18.6475 9.87459 18.5965C10.354 20.096 11.7414 21.1773 13.3939 21.2181C12.0984 22.228 10.4866 22.8299 8.71167 22.8299C8.40564 22.8299 8.10981 22.8095 7.81398 22.7789C9.48695 23.85 11.4659 24.4722 13.5878 24.4722C20.5143 24.4722 24.309 18.7291 24.309 13.751C24.309 13.5878 24.309 13.4245 24.2988 13.2613C25.0333 12.7309 25.676 12.0678 26.1758 11.3129L26.186 11.3027Z" fill="#9CA7AA"/>
</g>
<defs>
<clipPath id="clip0_31_242">
<rect width="34" height="34" fill="white"/>
</clipPath>
</defs>
</svg>
