<svg width="33" height="34" viewBox="0 0 33 34" fill="none" xmlns="http://www.w3.org/2000/svg">
<g clip-path="url(#clip0_31_246)">
<path fill-rule="evenodd" clip-rule="evenodd" d="M16.5049 0C25.6139 0 33.0099 7.60996 33.0099 17.0051C33.0099 26.39 25.6238 34.0102 16.5049 34.0102C7.39604 34.0102 0 26.4002 0 17.0051C0 7.62016 7.38614 0 16.5049 0ZM23.4356 9.71137C21.703 7.92619 19.4059 6.94689 16.9505 6.94689C11.901 6.94689 7.79208 11.1803 7.79208 16.3828C7.79208 18.0456 8.21782 19.6676 9.0198 21.0957L7.72277 25.9922L12.5842 24.6763C13.9208 25.4311 15.4257 25.829 16.9604 25.829C22.0099 25.829 26.1188 21.5956 26.1188 16.393C26.1188 13.8734 25.1683 11.4965 23.4356 9.71137ZM16.9604 24.2376C15.5941 24.2376 14.2475 23.8602 13.0792 23.1461L12.802 22.9727L9.92079 23.748L10.6931 20.8509L10.5149 20.5551C9.75247 19.3105 9.34653 17.862 9.34653 16.3828C9.34653 12.0576 12.7624 8.53825 16.9703 8.53825C19 8.53825 20.9208 9.35434 22.3564 10.8335C23.7921 12.3228 24.5842 14.2814 24.5842 16.3828C24.5842 20.7081 21.1683 24.2376 16.9703 24.2376H16.9604ZM21.1386 18.3618C20.9109 18.2394 19.7822 17.6784 19.5743 17.5968C19.3663 17.5152 19.2079 17.4743 19.0594 17.7192C18.9109 17.9538 18.4653 18.4842 18.3366 18.6475C18.198 18.8005 18.0693 18.8311 17.8416 18.7087C17.6139 18.5863 16.8713 18.3414 16 17.5356C15.3168 16.9133 14.8614 16.138 14.7228 15.9034C14.5842 15.6688 14.703 15.5362 14.8218 15.4239C14.9307 15.3219 15.0495 15.1485 15.1683 15.0057C15.2871 14.8629 15.3168 14.7711 15.396 14.6079C15.4752 14.4548 15.4356 14.312 15.3762 14.1896C15.3168 14.0672 14.8614 12.9145 14.6733 12.435C14.4851 11.976 14.297 12.0372 14.1584 12.027C14.0198 12.0168 13.8713 12.0168 13.7228 12.0168C13.5743 12.0168 13.3267 12.078 13.1089 12.3126C12.901 12.5473 12.3069 13.1185 12.3069 14.2814C12.3069 15.4443 13.1287 16.5665 13.2376 16.7195C13.3564 16.8725 14.8515 19.2595 17.1485 20.2796C17.6931 20.5245 18.1188 20.6673 18.4554 20.7795C19 20.9529 19.5049 20.9325 19.901 20.8713C20.3366 20.7999 21.2574 20.3 21.4455 19.7492C21.6337 19.1983 21.6337 18.7291 21.5842 18.6271C21.5347 18.5251 21.3762 18.4638 21.1485 18.3414L21.1386 18.3618Z" fill="#9CA7AA"/>
</g>
<defs>
<clipPath id="clip0_31_246">
<rect width="33" height="34" fill="white"/>
</clipPath>
</defs>
</svg>
